HIERARCHY
ROOT Hips
{
	OFFSET -0.001795 -0.223333 0.028219
	CHANNELS 6 Xposition Yposition Zposition Zrotation Yrotation Xrotation 
	JOINT LeftUpLeg
	{
		OFFSET 0.069520 -0.091406 -0.006815
		CHANNELS 3 Zrotation Yrotation Xrotation
		JOINT LeftLeg
		{
			OFFSET 0.034277 -0.375199 -0.004496
			CHANNELS 3 Zrotation Yrotation Xrotation
			JOINT LeftFoot
			{
				OFFSET -0.013596 -0.397961 -0.043693
				CHANNELS 3 Zrotation Yrotation Xrotation
				JOINT LeftToe
				{
					OFFSET 0.026358 -0.055791 0.119288
					CHANNELS 3 Zrotation Yrotation Xrotation
					End Site
					{
						OFFSET 0.000000 0.000000 0.000000
					}
				}
			}
		}
	}
	JOINT RightUpLeg
	{
		OFFSET -0.067670 -0.090522 -0.004320
		CHANNELS 3 Zrotation Yrotation Xrotation
		JOINT RightLeg
		{
			OFFSET -0.038290 -0.382569 -0.008850
			CHANNELS 3 Zrotation Yrotation Xrotation
			JOINT RightFoot
			{
				OFFSET 0.015774 -0.398415 -0.042312
				CHANNELS 3 Zrotation Yrotation Xrotation
				JOINT RightToe
				{
					OFFSET -0.025372 -0.048144 0.123348
					CHANNELS 3 Zrotation Yrotation Xrotation
					End Site
					{
						OFFSET 0.000000 0.000000 0.000000
					}
				}
			}
		}
	}
	JOINT Spine
	{
		OFFSET -0.002533 0.108963 -0.026696
		CHANNELS 3 Zrotation Yrotation Xrotation
		JOINT Spine1
		{
			OFFSET 0.005487 0.135180 0.001092
			CHANNELS 3 Zrotation Yrotation Xrotation
			JOINT Spine2
			{
				OFFSET 0.001457 0.052922 0.025425
				CHANNELS 3 Zrotation Yrotation Xrotation
				JOINT Neck
				{
					OFFSET -0.002778 0.213870 -0.042857
					CHANNELS 3 Zrotation Yrotation Xrotation
					JOINT Head
					{
						OFFSET 0.005152 0.064970 0.051349
						CHANNELS 3 Zrotation Yrotation Xrotation
						End Site
						{
							OFFSET 0.000000 0.000000 0.000000
						}
					}
				}
				JOINT LeftShoulder
				{
					OFFSET 0.078845 0.121749 -0.034090
					CHANNELS 3 Zrotation Yrotation Xrotation
					JOINT LeftArm
					{
						OFFSET 0.090977 0.030469 -0.008868
						CHANNELS 3 Zrotation Yrotation Xrotation
						JOINT LeftForeArm
						{
							OFFSET 0.259612 -0.012772 -0.027456
							CHANNELS 3 Zrotation Yrotation Xrotation
							JOINT LeftHand
							{
								OFFSET 0.249234 0.008986 -0.001171
								CHANNELS 3 Zrotation Yrotation Xrotation
								End Site
								{
									OFFSET 0.000000 0.000000 0.000000
								}
							}
						}
					}
				}
				JOINT RightShoulder
				{
					OFFSET -0.081759 0.118833 -0.038615
					CHANNELS 3 Zrotation Yrotation Xrotation
					JOINT RightArm
					{
						OFFSET -0.096012 0.032551 -0.009143
						CHANNELS 3 Zrotation Yrotation Xrotation
						JOINT RightForeArm
						{
							OFFSET -0.253742 -0.013329 -0.021401
							CHANNELS 3 Zrotation Yrotation Xrotation
							JOINT RightHand
							{
								OFFSET -0.255298 0.007772 -0.005559
								CHANNELS 3 Zrotation Yrotation Xrotation
								End Site
								{
									OFFSET 0.000000 0.000000 0.000000
								}
							}
						}
					}
				}
			}
		}
	}
}
MOTION
Frames: 10
Frame Time: 0.050000
0.000000 0.956022 0.000000 -0.911781 -0.685339 5.543120 -0.425053 0.040594 0.321231 1.674412 0.225949 -8.313266 -0.797543 4.084194 14.659496 0.000000 0.000000 0.000000 1.761352 -0.065721 -0.022083 -1.389429 -0.264842 -7.933836 8.798319 10.509448 14.637245 0.000000 0.000000 0.000000 5.585797 0.091300 -2.678689 -0.735635 0.271507 4.613151 -2.187511 1.246117 0.969249 6.041423 -2.468925 -14.637870 0.000000 0.000000 0.000000 -29.282564 -7.763377 1.383720 -25.407278 8.728406 -4.083206 14.443344 -9.446336 -0.809655 0.000000 0.000000 0.000000 24.695165 4.834483 0.885019 27.178417 -6.083686 -3.557087 -10.271950 22.873840 -1.095943 0.000000 0.000000 0.000000 
-0.000774 0.954026 0.001958 -1.146962 -1.228244 5.918439 -0.073547 0.017751 0.183255 1.487640 0.239671 -8.435982 -0.378084 4.488586 14.089388 0.000000 0.000000 0.000000 1.833658 0.021659 -0.834996 -1.102658 -0.244654 -7.328833 9.070176 11.020123 14.523939 0.000000 0.000000 0.000000 6.627782 0.035133 -2.215194 -1.505580 0.680309 5.385535 -3.102170 1.998034 -0.802572 8.069882 -3.215152 -16.798867 0.000000 0.000000 0.000000 -27.869957 -9.181319 1.977753 -27.651029 9.757207 -4.537948 16.585106 -6.470316 -0.675565 0.000000 0.000000 0.000000 26.244635 2.375969 -0.520285 27.161598 -7.598290 -3.798014 -11.162495 24.671944 -1.346814 0.000000 0.000000 0.000000 
-0.001244 0.952610 0.003696 -0.813745 -0.902432 5.815475 0.052672 0.006469 0.093800 0.729140 0.244753 -7.940226 -0.466838 4.225745 13.551924 0.000000 0.000000 0.000000 1.688760 -0.023871 -0.382365 -1.409916 -0.260317 -7.858365 8.926593 10.923054 14.337703 0.000000 0.000000 0.000000 7.181675 0.001129 -1.934827 -1.844819 0.859432 3.038421 -3.361308 1.348906 1.411586 7.743205 -3.057015 -17.348044 0.000000 0.000000 0.000000 -27.378406 -9.006148 2.196618 -28.871703 11.150134 -5.211050 16.817729 -6.639672 -0.692253 0.000000 0.000000 0.000000 26.013964 3.917773 0.362849 27.563341 -8.768486 -4.143672 -11.660232 25.512523 -1.526419 0.000000 0.000000 0.000000 
-0.001768 0.952853 0.005251 -0.843430 -1.330453 5.923858 0.018596 0.044607 0.502409 0.818049 0.271219 -8.610609 -0.334180 4.478940 13.874470 0.000000 0.000000 0.000000 1.434802 -0.036575 -0.206068 -0.793214 -0.289547 -8.084435 8.950685 10.942802 14.273721 0.000000 0.000000 0.000000 7.216304 -0.008925 -1.850951 -2.180337 1.034901 3.406031 -2.910544 1.846791 0.402457 7.976836 -3.011724 -18.133998 0.000000 0.000000 0.000000 -28.095466 -9.486570 2.360341 -29.062101 12.567231 -5.466808 17.700543 -5.547290 -0.617175 0.000000 0.000000 0.000000 26.276272 3.605116 0.182961 26.662778 -10.610937 -4.272391 -11.585654 25.982359 -1.542688 0.000000 0.000000 0.000000 
-0.002250 0.952900 0.006524 -0.550183 -1.160765 5.936776 -0.076610 0.071021 0.755502 0.502314 0.296201 -8.980605 -0.510403 4.287311 14.091390 0.000000 0.000000 0.000000 1.100205 -0.057835 0.111435 -0.645761 -0.304626 -8.318337 8.713435 10.781486 13.873468 0.000000 0.000000 0.000000 7.334087 0.007579 -2.032112 -2.247908 1.067140 3.696292 -3.043628 1.497225 -0.179540 7.912251 -3.079353 -17.483682 0.000000 0.000000 0.000000 -28.684484 -9.124522 2.165192 -28.459259 12.655918 -5.339807 18.388266 -4.661948 -0.533772 0.000000 0.000000 0.000000 25.742087 3.680768 0.152469 26.952179 -11.314074 -4.402277 -11.864181 25.779189 -1.595476 0.000000 0.000000 0.000000 
-0.002621 0.952811 0.007609 -0.358335 -0.658183 5.667483 -0.337510 0.124182 1.226052 0.732530 0.298974 -9.261382 -0.807503 3.903200 14.134899 0.000000 0.000000 0.000000 0.648528 -0.073832 0.453389 -0.147598 -0.304713 -7.910481 8.381069 10.743966 13.087687 0.000000 0.000000 0.000000 7.243453 -0.010887 -1.818853 -2.108387 0.987116 4.202437 -3.023715 1.283839 -0.530462 7.898291 -2.992810 -17.865583 0.000000 0.000000 0.000000 -28.998488 -9.304524 2.234533 -28.501612 12.472060 -5.290166 19.073108 -3.784772 -0.446546 0.000000 0.000000 0.000000 25.370405 3.788194 0.241061 27.039229 -11.625260 -4.459734 -12.475504 24.789187 -1.641537 0.000000 0.000000 0.000000 
-0.002951 0.952901 0.008471 -0.171781 -0.234995 5.537596 -0.429527 0.146877 1.428140 0.657074 0.302556 -9.345088 -1.062399 3.579662 14.198585 0.000000 0.000000 0.000000 0.508295 -0.111936 0.882560 -0.219444 -0.311050 -8.081682 8.213882 10.710632 12.742937 0.000000 0.000000 0.000000 7.325022 -0.023897 -1.694611 -2.058511 0.953552 4.082272 -3.137779 1.321214 -0.421464 7.957068 -3.014935 -17.807418 0.000000 0.000000 0.000000 -28.845330 -8.954782 1.905211 -28.009961 11.709244 -5.022223 19.576008 -3.280792 -0.400284 0.000000 0.000000 0.000000 25.102418 3.463192 0.149996 26.619666 -11.941570 -4.456398 -12.429398 22.986621 -1.481509 0.000000 0.000000 0.000000 
-0.003286 0.952956 0.009147 -0.101644 0.420269 5.265864 -0.437595 0.191885 1.901781 0.706104 0.311744 -9.690588 -1.440355 3.101851 14.278458 0.000000 0.000000 0.000000 0.489942 -0.151292 1.273884 -0.322692 -0.304802 -7.957115 8.074787 10.744298 12.425891 0.000000 0.000000 0.000000 7.394214 -0.036860 -1.546928 -1.932318 0.875380 4.251879 -3.218531 1.464545 -0.383863 7.857614 -2.946862 -17.610391 0.000000 0.000000 0.000000 -28.971596 -9.328345 1.944608 -27.121811 11.278116 -4.720972 19.906092 -2.894255 -0.366243 0.000000 0.000000 0.000000 25.434228 3.345566 0.235685 26.130400 -12.020935 -4.412339 -12.603560 20.766473 -1.322330 0.000000 0.000000 0.000000 
-0.003614 0.953255 0.009596 -0.098587 1.003017 5.296429 -0.207659 0.197770 2.077852 0.447686 0.329019 -10.111536 -1.801943 2.686668 14.493857 0.000000 0.000000 0.000000 0.547498 -0.179710 1.518086 -0.361077 -0.319996 -8.289590 7.984582 10.559443 12.569225 0.000000 0.000000 0.000000 7.372926 -0.021188 -1.736207 -1.784148 0.781124 4.722355 -3.305805 1.489954 -0.631200 7.829757 -2.892015 -17.605775 0.000000 0.000000 0.000000 -28.828948 -9.417611 1.854401 -26.326848 10.778096 -4.431553 20.940270 -2.585569 -0.355233 0.000000 0.000000 0.000000 25.412947 3.421297 0.397759 25.905568 -12.506113 -4.459936 -12.617867 18.920053 -1.171566 0.000000 0.000000 0.000000 
-0.004069 0.953555 0.009879 -0.048490 1.440532 5.123832 0.005837 0.202209 2.242628 0.117331 0.331451 -10.110845 -2.062363 2.370072 14.580556 0.000000 0.000000 0.000000 0.594704 -0.235333 2.019191 -0.539251 -0.331383 -8.628173 7.984592 10.644978 12.540207 0.000000 0.000000 0.000000 7.348252 -0.019217 -1.727627 -1.868407 0.815650 4.773200 -3.328733 1.743116 -0.389807 7.434858 -2.592706 -17.839712 0.000000 0.000000 0.000000 -28.996111 -9.909555 1.981725 -25.337084 10.193304 -4.110697 21.434874 -2.352159 -0.340395 0.000000 0.000000 0.000000 25.662631 3.380260 0.543500 25.675980 -12.502696 -4.458914 -12.596969 17.103269 -1.016315 0.000000 0.000000 0.000000 
